<svg width="41" height="41" viewBox="0 0 41 41" fill="none" xmlns="http://www.w3.org/2000/svg">
<circle cx="20" cy="19.5" r="5" fill="black" stroke="black"/>
<path fill-rule="evenodd" clip-rule="evenodd" d="M18.5 2.56165C9.7553 3.28307 2.78303 10.2553 2.06161 19H3.06527C3.78145 10.808 10.308 4.28148 18.5 3.5653V2.56165ZM18.5 8.59288C13.0719 9.26975 8.76971 13.572 8.09284 19H9.10142C9.76614 14.125 13.6249 10.2662 18.5 9.60145V8.59288ZM21.5 9.60145V8.59288C26.9281 9.26975 31.2303 13.572 31.9072 19H30.8986C30.2339 14.125 26.3751 10.2662 21.5 9.60145ZM30.8986 22C30.2339 26.8751 26.3751 30.7339 21.5 31.3986V32.4072C26.9281 31.7303 31.2303 27.4281 31.9072 22H30.8986ZM36.9347 22C36.2185 30.1921 29.692 36.7186 21.5 37.4348V38.4384C30.2447 37.717 37.217 30.7447 37.9384 22H36.9347ZM37.9384 19C37.217 10.2553 30.2447 3.28307 21.5 2.56165V3.5653C29.692 4.28148 36.2185 10.808 36.9347 19H37.9384ZM18.5 38.4384V37.4348C10.308 36.7186 3.78145 30.1921 3.06527 22H2.06161C2.78303 30.7447 9.7553 37.717 18.5 38.4384ZM8.09284 22C8.76971 27.4281 13.0719 31.7303 18.5 32.4072V31.3986C13.6249 30.7339 9.76614 26.8751 9.10142 22H8.09284Z" fill="black"/>
<path fill-rule="evenodd" clip-rule="evenodd" d="M19.5 0H20.5V12H19.5V0ZM0 20V21H12V20H0ZM29 20V21H41V20H29ZM20.5 29H19.5V41H20.5V29Z" fill="black"/>
</svg>
